# ProBuilder 6.0.5
# https://unity3d.com/unity/features/worldbuilding/probuilder
# 06.04.2025 20:17:29

mtllib ./Sphere.mtl
o Sphere

g Sphere
v 84.89795 -19.54654 16.00305
v 75.99453 17.85526 9.822799
v 84.9555 -19.4902 16.2584
v 76.02522 17.88531 9.958946
v 85.13226 -19.41601 16.44533
v 76.11946 17.92486 10.05862
v 85.38087 -19.34386 16.51375
v 76.252 17.96333 10.0951
v 85.6347 -19.29307 16.44533
v 76.38735 17.99041 10.05862
v 85.82574 -19.27725 16.2584
v 76.48922 17.99884 9.958946
v 85.90281 -19.30066 16.00305
v 76.53031 17.98637 9.822795
v 85.84525 -19.35699 15.7477
v 76.49961 17.95633 9.686645
v 85.6685 -19.43119 15.56077
v 76.40538 17.91677 9.586975
v 85.41989 -19.50334 15.49235
v 76.27283 17.8783 9.550497
v 85.16606 -19.55413 15.56077
v 76.13749 17.85122 9.586975
v 84.97501 -19.56994 15.7477
v 76.03562 17.84279 9.686645
v 76.26243 17.92081 9.8228

vt -0.1294048 14.29093
vt -0.06900463 51.93236
vt 0.1294133 14.29093
vt 0.06899401 51.93237
vt -0.06899482 51.93236
vt 0.06900288 51.93236
vt 0.2673312 0.001675124
vt 0.0007268888 0.001675467
vt 0.2316153 0.1349718
vt 0.2327032 0.1330872
vt 0.001814868 -0.000209069
vt 0.1351208 0.2306704
vt 0.1322016 0.2323559
vt -0.001104345 0.001476435
vt -0.00108181 0.268072
vt 0.001094318 0.2680718
vt 0.001071782 0.001476252
vt -0.1322107 0.2323562
vt -0.1338427 0.2314141
vt -0.0005602353 0.0005341201
vt -0.2314318 0.1338297
vt -0.2323741 0.1321976
vt -0.0015025 -0.001097909
vt -0.2680927 -0.001101357
vt -0.2680928 -0.000411777
vt -0.001502509 -0.0004083287
vt -0.2323614 -0.1337098
vt -0.2327065 -0.1331122
vt -0.1351388 -0.2306944
vt -0.1335065 -0.2316367
vt -0.0002153219 -0.0007530535
vt -0.0002077879 -0.2673502
vt 0.1334801 -0.2316366
vt 0.1338249 -0.2314375
vt 0.0005277571 -0.0005539391
vt 0.2314141 -0.1338556
vt 0.2316132 -0.1335107
vt 0.0007268862 -0.0002090358
vt 0.2673312 -0.0002093796

vn -1.00635 -0.2397289 -0.001025629
vn -0.8912393 -0.1270454 0.5096691
vn -0.5377227 0.02132804 0.8835213
vn -0.04053428 0.1656329 1.020359
vn 0.4671166 0.2672067 0.8835232
vn 0.8492005 0.298831 0.5096755
vn 1.003339 0.2520329 -0.00100797
vn 0.8882163 0.1393426 -0.5117284
vn 0.534727 -0.009019162 -0.8855485
vn 0.03751126 -0.1533322 -1.022395
vn -0.4701317 -0.2549035 -0.8855568
vn -0.8522088 -0.2865273 -0.5117156
vn -0.2427522 0.9921253 -0.1642233

usemtl ProBuilderDefault
f 4/9/13 25/8/13 2/7/13
f 6/12/13 25/11/13 4/10/13
f 8/15/13 25/14/13 6/13/13
f 10/18/13 25/17/13 8/16/13
f 12/21/13 25/20/13 10/19/13
f 14/24/13 25/23/13 12/22/13
f 16/27/13 25/26/13 14/25/13
f 18/29/13 25/26/13 16/28/13
f 20/32/13 25/31/13 18/30/13
f 22/33/13 25/31/13 20/32/13
f 24/36/13 25/35/13 22/34/13
f 2/39/13 25/38/13 24/37/13
f 4/4/2 2/2/1 1/1/1
f 1/1/1 3/3/2 4/4/2
f 6/4/3 4/2/2 3/1/2
f 3/1/2 5/3/3 6/4/3
f 8/4/4 6/5/3 5/1/3
f 5/1/3 7/3/4 8/4/4
f 10/6/5 8/2/4 7/1/4
f 7/1/4 9/3/5 10/6/5
f 12/6/6 10/5/5 9/1/5
f 9/1/5 11/3/6 12/6/6
f 14/6/7 12/5/6 11/1/6
f 11/1/6 13/3/7 14/6/7
f 16/6/8 14/5/7 13/1/7
f 13/1/7 15/3/8 16/6/8
f 18/6/9 16/5/8 15/1/8
f 15/1/8 17/3/9 18/6/9
f 20/4/10 18/2/9 17/1/9
f 17/1/9 19/3/10 20/4/10
f 22/4/11 20/2/10 19/1/10
f 19/1/10 21/3/11 22/4/11
f 24/4/12 22/2/11 21/1/11
f 21/1/11 23/3/12 24/4/12
f 2/4/1 24/2/12 23/1/12
f 23/1/12 1/3/1 2/4/1

g Cube (146)
v 83.8919 -9.144379 9.296053
v 79.65869 -7.767834 25.23222
v 83.94016 -9.212529 9.314759
v 79.70696 -7.835983 25.25093
v 84.01556 -9.245911 9.337671
v 79.78236 -7.869364 25.27384
v 84.09789 -9.235579 9.358649
v 79.86469 -7.859032 25.29482
v 84.16508 -9.184302 9.372069
v 79.93188 -7.807756 25.30824
v 84.19914 -9.105822 9.374336
v 79.96593 -7.729276 25.31051
v 84.19093 -9.021165 9.364843
v 79.95773 -7.644619 25.30101
v 84.14266 -8.953016 9.346134
v 79.90945 -7.57647 25.28231
v 84.06727 -8.919634 9.323224
v 79.83406 -7.543089 25.25939
v 83.98495 -8.929965 9.302249
v 79.75173 -7.55342 25.23842
v 83.91775 -8.981242 9.288827
v 79.68454 -7.604696 25.225
v 83.88369 -9.059723 9.286559
v 79.65048 -7.683177 25.22273
v 84.04141 -9.082772 9.330448
v 79.80821 -7.706226 25.26662

vt -0.1293449 -0.07699571
vt -0.12938 0.4999997
vt 0.1294674 -0.07699572
vt 0.129439 0.4999997
vt -0.1293952 -0.07701904
vt 0.129425 -0.07701904
vt -0.1294201 0.5000091
vt 0.1293989 0.5000091
vt -0.4999912 3.402519E-05
vt 3.049416E-06 3.287417E-05
vt -0.4330209 0.2500316
vt 0.5 0
vt 0.4330127 0.25
vt -0.2500066 0.4330443
vt 0.25 0.4330127
vt -5.084182E-06 0.5000327
vt 0.2500101 0.4330491
vt 0.4999973 3.172514E-05
vt -0.5 -4.371139E-08
vt 0.433004 -0.249969
vt -0.4330127 -0.25
vt 0.2500127 -0.432979
vt -0.25 -0.4330127
vt 1.118134E-05 -0.4999661
vt 5.96244E-09 -0.5
vt -0.2500044 -0.4329819
vt 0.25 -0.4330127
vt 0.4330127 -0.2500001

vn -0.298958 -0.1232344 -0.06909994
vn -0.2027424 -0.2594323 -0.03047266
vn -0.05209565 -0.3261471 0.01593101
vn 0.1125307 -0.3054794 0.05795785
vn 0.1125062 -0.3054697 0.05805938
vn 0.2468956 -0.2029168 0.0848977
vn 0.3151537 -0.04599574 0.08888829
vn 0.3151993 -0.0460152 0.08871453
vn 0.2990395 0.123219 0.06877309
vn 0.2027789 0.2594196 0.03034247
vn 0.05203928 0.3261661 -0.01570434
vn 0.05199391 0.3261801 -0.0155492
vn -0.1125155 0.305474 -0.05801715
vn -0.1125385 0.3054801 -0.05793824
vn -0.2470009 0.2029516 -0.08449981
vn -0.3152591 0.04603032 -0.0884916
vn -0.3152151 0.04602038 -0.08865476
vn 7.336632 -2.385697 -27.61924
vn -7.336632 2.385697 27.61924

usemtl ProBuilderDefault
f 26/48/31 50/49/31 28/50/31
f 28/50/31 50/49/31 30/53/31
f 30/53/31 50/49/31 32/55/31
f 32/55/31 50/49/31 34/56/31
f 34/56/31 50/49/31 36/52/31
f 36/52/31 50/49/31 38/57/31
f 38/57/31 50/49/31 40/59/31
f 40/59/31 50/49/31 42/61/31
f 42/61/31 50/49/31 44/63/31
f 44/63/31 50/49/31 46/65/31
f 46/65/31 50/49/31 48/60/31
f 48/60/31 50/49/31 26/48/31
f 29/52/32 51/49/32 27/51/32
f 31/54/32 51/49/32 29/52/32
f 33/55/32 51/49/32 31/54/32
f 35/53/32 51/49/32 33/55/32
f 37/50/32 51/49/32 35/53/32
f 39/58/32 51/49/32 37/50/32
f 41/60/32 51/49/32 39/58/32
f 43/62/32 51/49/32 41/60/32
f 45/64/32 51/49/32 43/62/32
f 47/66/32 51/49/32 45/64/32
f 49/67/32 51/49/32 47/66/32
f 27/51/32 51/49/32 49/67/32
f 29/43/15 27/41/14 26/40/14
f 26/40/14 28/42/15 29/43/15
f 31/43/16 29/41/15 28/44/15
f 28/44/15 30/45/16 31/43/16
f 33/43/18 31/41/16 30/44/16
f 30/44/16 32/45/17 33/43/18
f 35/43/19 33/41/18 32/44/17
f 32/44/17 34/45/19 35/43/19
f 37/43/21 35/41/19 34/44/19
f 34/44/19 36/45/20 37/43/21
f 39/43/22 37/41/21 36/44/20
f 36/44/20 38/45/22 39/43/22
f 41/47/23 39/46/22 38/40/22
f 38/40/22 40/42/23 41/47/23
f 43/47/25 41/46/23 40/40/23
f 40/40/23 42/42/24 43/47/25
f 45/47/27 43/46/25 42/40/24
f 42/40/24 44/42/26 45/47/27
f 47/47/28 45/46/27 44/40/26
f 44/40/26 46/42/28 47/47/28
f 49/47/30 47/46/28 46/40/28
f 46/40/28 48/42/29 49/47/30
f 27/47/14 49/46/30 48/40/29
f 48/40/29 26/42/14 27/47/14

g Cube (15)
v 84.87568 -0.7451463 1.644353
v 76.06799 0.7635571 23.78356
v 84.915 -0.8183079 1.664982
v 76.10732 0.6903954 23.80419
v 84.98363 -0.8596319 1.695099
v 76.17594 0.6490715 23.83431
v 85.06317 -0.8580453 1.726636
v 76.25549 0.650658 23.86584
v 85.13232 -0.8139735 1.751142
v 76.32463 0.6947299 23.89035
v 85.17254 -0.7392253 1.76205
v 76.36485 0.7694781 23.90126
v 85.17307 -0.6538295 1.756438
v 76.36538 0.8548739 23.89565
v 85.13374 -0.5806678 1.73581
v 76.32606 0.9280356 23.87502
v 85.06512 -0.5393438 1.705692
v 76.25743 0.9693595 23.8449
v 84.98557 -0.5409304 1.674155
v 76.17789 0.967773 23.81337
v 84.91643 -0.5850022 1.64965
v 76.10874 0.9237011 23.78886
v 84.87621 -0.6597504 1.638741
v 76.06852 0.8489529 23.77795
v 85.02438 -0.6994879 1.700396
v 76.21668 0.8092155 23.83961

vt -0.1294095 -0.5
vt -0.1294095 0.5
vt 0.1294095 -0.5
vt 0.1294095 0.5
vt -0.5 0
vt 0 0
vt -0.4330127 0.25
vt 0.5 0
vt 0.4330127 0.25
vt -0.25 0.4330127
vt 0.25 0.4330127
vt 2.185569E-08 0.5
vt 0.25 0.4330127
vt -0.25 0.4330127
vt 0.4330127 -0.25
vt -0.4330127 -0.25
vt 0.25 -0.4330127
vt -0.25 -0.4330127
vt -5.96244E-09 -0.5
vt -0.4330127 -0.2500001
vt 0.4330127 -0.2500001

vn -0.2973811 -0.09131678 -0.1120848
vn -0.2187415 -0.2376402 -0.07082809
vn -0.08149022 -0.3202881 -0.010593
vn 0.07759627 -0.317115 0.05248046
vn 0.2158909 -0.2289713 0.1014918
vn 0.2963377 -0.07947484 0.1233085
vn 0.2973811 0.09131681 0.1120848
vn 0.2187414 0.2376402 0.07082807
vn 0.08149022 0.3202881 0.010593
vn -0.07759625 0.317115 -0.05248046
vn -0.2158909 0.2289713 -0.1014918
vn -0.2963377 0.07947489 -0.1233085
vn 8.807687 -1.508703 -22.13921
vn -8.807687 1.508703 22.13921

usemtl ProBuilderDefault
f 52/72/45 76/73/45 54/74/45
f 54/74/45 76/73/45 56/77/45
f 56/77/45 76/73/45 58/79/45
f 58/79/45 76/73/45 60/80/45
f 60/80/45 76/73/45 62/76/45
f 62/76/45 76/73/45 64/75/45
f 64/75/45 76/73/45 66/82/45
f 66/82/45 76/73/45 68/84/45
f 68/84/45 76/73/45 70/86/45
f 70/86/45 76/73/45 72/85/45
f 72/85/45 76/73/45 74/87/45
f 74/87/45 76/73/45 52/72/45
f 55/76/46 77/73/46 53/75/46
f 57/78/46 77/73/46 55/76/46
f 59/79/46 77/73/46 57/78/46
f 61/81/46 77/73/46 59/79/46
f 63/74/46 77/73/46 61/81/46
f 65/72/46 77/73/46 63/74/46
f 67/83/46 77/73/46 65/72/46
f 69/85/46 77/73/46 67/83/46
f 71/86/46 77/73/46 69/85/46
f 73/84/46 77/73/46 71/86/46
f 75/88/46 77/73/46 73/84/46
f 53/75/46 77/73/46 75/88/46
f 55/71/34 53/69/33 52/68/33
f 52/68/33 54/70/34 55/71/34
f 57/71/35 55/69/34 54/68/34
f 54/68/34 56/70/35 57/71/35
f 59/71/36 57/69/35 56/68/35
f 56/68/35 58/70/36 59/71/36
f 61/71/37 59/69/36 58/68/36
f 58/68/36 60/70/37 61/71/37
f 63/71/38 61/69/37 60/68/37
f 60/68/37 62/70/38 63/71/38
f 65/71/39 63/69/38 62/68/38
f 62/68/38 64/70/39 65/71/39
f 67/71/40 65/69/39 64/68/39
f 64/68/39 66/70/40 67/71/40
f 69/71/41 67/69/40 66/68/40
f 66/68/40 68/70/41 69/71/41
f 71/71/42 69/69/41 68/68/41
f 68/68/41 70/70/42 71/71/42
f 73/71/43 71/69/42 70/68/42
f 70/68/42 72/70/43 73/71/43
f 75/71/44 73/69/43 72/68/43
f 72/68/43 74/70/44 75/71/44
f 53/71/33 75/69/44 74/68/44
f 74/68/44 52/70/33 53/71/33

g Cube (90)
v 81.95844 7.464586 3.333916
v 75.08835 8.453333 19.4664
v 81.99756 7.391458 3.355053
v 75.12746 8.380204 19.48754
v 82.06561 7.350224 3.386561
v 75.19551 8.33897 19.51905
v 82.14437 7.351933 3.419997
v 75.27428 8.340679 19.55248
v 82.21274 7.396128 3.446402
v 75.34264 8.384874 19.57889
v 82.25239 7.470966 3.458701
v 75.38229 8.459712 19.59119
v 82.2527 7.556395 3.453598
v 75.38261 8.545141 19.58608
v 82.21358 7.629524 3.432461
v 75.34349 8.61827 19.56495
v 82.14554 7.670757 3.400953
v 75.27544 8.659504 19.53344
v 82.06677 7.669048 3.367517
v 75.19668 8.657794 19.5
v 81.99841 7.624853 3.341112
v 75.12831 8.6136 19.4736
v 81.95876 7.550015 3.328813
v 75.08866 8.538761 19.4613
v 82.10558 7.51049 3.393757
v 75.23547 8.499237 19.52624

vt -0.1294095 -0.5
vt -0.1294095 0.5
vt 0.1294095 -0.5
vt 0.1294095 0.5
vt -0.5 0
vt 0 0
vt -0.4330127 0.25
vt 0.5 0
vt 0.4330127 0.25
vt -0.25 0.4330127
vt 0.25 0.4330127
vt 2.185569E-08 0.5
vt 0.25 0.4330127
vt -0.25 0.4330127
vt 0.4330127 -0.25
vt -0.4330127 -0.25
vt 0.25 -0.4330127
vt -0.25 -0.4330127
vt -5.96244E-09 -0.5
vt -0.4330127 -0.2500001
vt 0.4330127 -0.2500001

vn -0.2942527 -0.09180858 -0.1196821
vn -0.2160322 -0.2380661 -0.07740749
vn -0.07992604 -0.320534 -0.01439164
vn 0.07759626 -0.317115 0.05248044
vn 0.2143267 -0.2287254 0.1052904
vn 0.2936285 -0.07904894 0.1298879
vn 0.2942527 0.09180861 0.1196821
vn 0.2160322 0.2380661 0.07740748
vn 0.07992604 0.320534 0.01439164
vn -0.07759625 0.317115 -0.05248043
vn -0.2143267 0.2287254 -0.1052904
vn -0.2936285 0.07904898 -0.1298879
vn 6.870096 -0.9887465 -16.13249
vn -6.870096 0.9887465 16.13249

usemtl ProBuilderDefault
f 78/93/59 102/94/59 80/95/59
f 80/95/59 102/94/59 82/98/59
f 82/98/59 102/94/59 84/100/59
f 84/100/59 102/94/59 86/101/59
f 86/101/59 102/94/59 88/97/59
f 88/97/59 102/94/59 90/96/59
f 90/96/59 102/94/59 92/103/59
f 92/103/59 102/94/59 94/105/59
f 94/105/59 102/94/59 96/107/59
f 96/107/59 102/94/59 98/106/59
f 98/106/59 102/94/59 100/108/59
f 100/108/59 102/94/59 78/93/59
f 81/97/60 103/94/60 79/96/60
f 83/99/60 103/94/60 81/97/60
f 85/100/60 103/94/60 83/99/60
f 87/102/60 103/94/60 85/100/60
f 89/95/60 103/94/60 87/102/60
f 91/93/60 103/94/60 89/95/60
f 93/104/60 103/94/60 91/93/60
f 95/106/60 103/94/60 93/104/60
f 97/107/60 103/94/60 95/106/60
f 99/105/60 103/94/60 97/107/60
f 101/109/60 103/94/60 99/105/60
f 79/96/60 103/94/60 101/109/60
f 81/92/48 79/90/47 78/89/47
f 78/89/47 80/91/48 81/92/48
f 83/92/49 81/90/48 80/89/48
f 80/89/48 82/91/49 83/92/49
f 85/92/50 83/90/49 82/89/49
f 82/89/49 84/91/50 85/92/50
f 87/92/51 85/90/50 84/89/50
f 84/89/50 86/91/51 87/92/51
f 89/92/52 87/90/51 86/89/51
f 86/89/51 88/91/52 89/92/52
f 91/92/53 89/90/52 88/89/52
f 88/89/52 90/91/53 91/92/53
f 93/92/54 91/90/53 90/89/53
f 90/89/53 92/91/54 93/92/54
f 95/92/55 93/90/54 92/89/54
f 92/89/54 94/91/55 95/92/55
f 97/92/56 95/90/55 94/89/55
f 94/89/55 96/91/56 97/92/56
f 99/92/57 97/90/56 96/89/56
f 96/89/56 98/91/57 99/92/57
f 101/92/58 99/90/57 98/89/57
f 98/89/57 100/91/58 101/92/58
f 79/92/47 101/90/58 100/89/58
f 100/89/58 78/91/47 79/92/47

